# xmcd
#
# Track frame offsets:
#	150
#	11021
#	30118
#	41312
#	56826
#	71437
#	87702
#	105640
#	125325
#	145448
#	153167
#	166755
#
# Disc length: 2377 seconds
#
# Revision: 0
# Processed by: cddbd v1.5.2PL0 Copyright (c) Steve Scherf et al.
# Submitted via: EasyCDDAExtractor 10.0.6.1
#
DISCID=9309470c
DTITLE=Peter Carlsson - Några Grammofoninspelningar
DYEAR=2000
DGENRE=Blues
TTITLE0=Utbränd
TTITLE1=Avbefolkningsblues
TTITLE2=Dansing
TTITLE3=Vad Är Det För Nå'n Lapp
TTITLE4=Fyra Små Vedträn
TTITLE5=Lyckliga Gatan
TTITLE6=Ales Ängar
TTITLE7=John Silver
TTITLE8=Helgdagskväll I Timmerkojan
TTITLE9=Hjortingen
TTITLE10=Det Är Bäst Att Man Tar För Sig
TTITLE11=Svartvit Calypso
EXTD=
EXTT0=
EXTT1=
EXTT2=
EXTT3=
EXTT4=
EXTT5=
EXTT6=
EXTT7=
EXTT8=
EXTT9=
EXTT10=
EXTT11=
PLAYORDER=
